# Blender v2.78 (sub 0) OBJ File: 'brie2.blend'
# www.blender.org
o Cylinder.001
v -0.526311 1.026885 -0.082386
v -0.467329 1.145132 -0.168140
v -0.566846 1.094852 -0.016544
v -0.507864 1.213100 -0.102298
v -0.621737 1.160172 0.035771
v -0.562754 1.278419 -0.049983
v -0.688876 1.220333 0.072549
v -0.629892 1.338580 -0.013204
v -0.765682 1.273024 0.092377
v -0.706699 1.391271 0.006624
v -0.849203 1.316219 0.094493
v -0.790220 1.434467 0.008739
v -0.877247 1.466507 -0.006939
v -0.920185 1.342352 0.081705
v -0.874734 1.465582 -0.006486
v -0.911851 1.023253 -0.352577
v -0.866285 1.142056 -0.446792
vn 0.4993 -0.8209 0.2769
vn 0.8370 0.5433 0.0649
vn 0.3234 -0.4865 0.8116
vn 0.2446 -0.3906 0.8874
vn 0.6514 0.7316 0.2011
vn 0.1395 -0.2947 0.9453
vn 0.0106 -0.2052 0.9786
vn 0.3759 0.8952 0.2393
vn -0.1352 -0.1294 0.9823
vn -0.5798 -0.7394 -0.3421
vn 0.9336 0.0498 -0.3547
vn -0.7198 0.0642 0.6912
vn -0.3460 0.9369 0.0488
vn -0.2242 0.1103 -0.9683
vn -0.5133 0.8581 -0.0041
vn 0.7573 0.6373 0.1420
vn 0.5219 0.8199 0.2353
s 1
f 1//1 4//2 3//3
f 4//2 5//4 3//3
f 5//4 8//5 7//6
f 8//5 9//7 7//6
f 9//7 12//8 11//9
f 16//10 2//11 1//1
f 12//8 14//12 11//9
f 16//10 14//12 15//13
f 7//6 9//7 16//10
f 15//13 17//14 13//15
f 8//5 6//16 17//14
f 1//1 2//11 4//2
f 4//2 6//16 5//4
f 5//4 6//16 8//5
f 8//5 10//17 9//7
f 9//7 10//17 12//8
f 16//10 17//14 2//11
f 12//8 15//13 14//12
f 15//13 13//15 17//14
f 17//14 16//10 15//13
f 14//12 16//10 11//9
f 1//1 3//3 16//10
f 5//4 7//6 16//10
f 9//7 11//9 16//10
f 16//10 3//3 5//4
f 2//11 17//14 4//2
f 15//13 12//8 17//14
f 10//17 8//5 17//14
f 6//16 4//2 17//14
f 17//14 12//8 10//17
