# Blender v2.78 (sub 0) OBJ File: 'brie1.blend'
# www.blender.org
o Cylinder.001
v -0.441060 1.023078 -0.029942
v -0.377052 1.148228 -0.101045
v -0.498489 1.087153 0.031139
v -0.434484 1.212303 -0.039966
v -0.567412 1.148409 0.076913
v -0.503406 1.273559 0.005810
v -0.645174 1.204492 0.105625
v -0.581167 1.329642 0.034521
v -0.728789 1.253246 0.116168
v -0.664782 1.378396 0.045065
v -0.815043 1.292799 0.108139
v -0.751036 1.417949 0.037036
v -0.900621 1.321629 0.081848
v -0.836614 1.446779 0.010744
v -0.918229 1.463780 -0.032802
v -0.376850 1.147930 -0.101388
v -0.442144 1.024288 -0.028788
v -0.967188 1.335495 0.046330
v -0.915872 1.463289 -0.031544
v -0.775226 1.016088 -0.343059
v -0.721247 1.139451 -0.426336
vn 0.2318 -0.5543 0.7993
vn 0.8455 0.5143 0.1436
vn 0.7738 0.5939 0.2200
vn 0.5028 -0.8019 0.3227
vn -0.4129 -0.7939 -0.4464
vn 0.9586 0.0953 -0.2681
vn 0.2156 -0.4976 0.8402
vn 0.6818 0.6749 0.2821
vn 0.1244 -0.4149 0.9013
vn 0.0122 -0.3323 0.9431
vn 0.4365 0.8319 0.3427
vn -0.1190 -0.2543 0.9597
vn 0.2909 0.8980 0.3299
vn -0.2639 -0.1868 0.9463
vn 0.1412 0.9483 0.2842
vn -0.4134 -0.1361 0.9003
vn 0.5687 0.7556 0.3249
vn -0.0004 0.1033 -0.9946
vn -0.9004 -0.0458 0.4327
vn -0.8932 0.3940 0.2169
vn -0.4064 -0.7944 0.4514
s 1
f 17//1 2//2 4//3
f 1//4 20//5 16//6
f 3//7 6//8 5//9
f 6//8 7//10 5//9
f 7//10 10//11 9//12
f 9//12 12//13 11//14
f 11//14 14//15 13//16
f 7//10 9//12 20//5
f 8//17 6//8 21//18
f 14//15 18//19 13//16
f 20//5 18//19 19//20
f 17//1 1//4 16//6
f 16//6 2//2 17//1
f 4//3 3//7 17//1
f 1//4 17//1 20//5
f 20//5 21//18 16//6
f 3//7 4//3 6//8
f 6//8 8//17 7//10
f 7//10 8//17 10//11
f 9//12 10//11 12//13
f 11//14 12//13 14//15
f 18//19 20//5 13//16
f 17//1 3//7 20//5
f 5//9 7//10 20//5
f 9//12 11//14 20//5
f 13//16 20//5 11//14
f 3//7 5//9 20//5
f 2//2 16//6 21//18
f 21//18 19//20 14//15
f 14//15 12//13 21//18
f 10//11 8//17 21//18
f 6//8 4//3 21//18
f 2//2 21//18 4//3
f 12//13 10//11 21//18
f 14//15 19//20 18//19
f 19//20 15//21 21//18
f 21//18 20//5 19//20
